# xmcd
#
# Track frame offsets: 
#        183
#        19825
#        42430
#        65168
#        95070
#        116738
#        141118
#        165743
#        189518
#        212153
#        230805
#        259058
#        283038
#        303755
#        327600
#
# Disc length: 4570 seconds
#
# Revision: 8
# Processed by: cddbd v1.5.2PL0 Copyright (c) Steve Scherf et al.
# Submitted via: ExactAudioCopy v0.99pb4
#
DISCID=ea11d80f
DTITLE=Kenny G - Breathless
DYEAR=1992
DGENRE=Smooth Jazz
TTITLE0=The joy of life
TTITLE1=Forever in love
TTITLE2=In the rain
TTITLE3=Sentimental
TTITLE4=By the time this night is over
TTITLE5=End of the night
TTITLE6=Alone
TTITLE7=Morning
TTITLE8=Even if my heart would break
TTITLE9=G-bop
TTITLE10=Sister Rose
TTITLE11=A year ago
TTITLE12=Homeland
TTITLE13=Natural ride
TTITLE14=The wedding song
EXTD=
EXTT0=
EXTT1=
EXTT2=
EXTT3=
EXTT4=
EXTT5=
EXTT6=
EXTT7=
EXTT8=
EXTT9=
EXTT10=
EXTT11=
EXTT12=
EXTT13=
EXTT14=
PLAYORDER=
